<mxfile host="Electron" modified="2024-06-07T09:10:12.488Z" agent="Mozilla/5.0 (Windows NT 10.0; Win64; x64) AppleWebKit/537.36 (KHTML, like Gecko) draw.io/22.0.3 Chrome/114.0.5735.289 Electron/25.8.4 Safari/537.36" etag="M5oAlfps9E6CXhItexXj" version="22.0.3" type="device">
  <diagram id="C5RBs43oDa-KdzZeNtuy" name="Page-1">
    <mxGraphModel dx="889" dy="828" grid="1" gridSize="10" guides="1" tooltips="1" connect="1" arrows="1" fold="1" page="1" pageScale="1" pageWidth="827" pageHeight="1169" math="0" shadow="0">
      <root>
        <mxCell id="WIyWlLk6GJQsqaUBKTNV-0" />
        <mxCell id="WIyWlLk6GJQsqaUBKTNV-1" parent="WIyWlLk6GJQsqaUBKTNV-0" />
        <mxCell id="zkfFHV4jXpPFQw0GAbJ--17" value="t_plante" style="swimlane;fontStyle=0;align=center;verticalAlign=top;childLayout=stackLayout;horizontal=1;startSize=26;horizontalStack=0;resizeParent=1;resizeLast=0;collapsible=1;marginBottom=0;rounded=0;shadow=0;strokeWidth=1;" parent="WIyWlLk6GJQsqaUBKTNV-1" vertex="1">
          <mxGeometry x="209" y="841" width="150" height="138" as="geometry">
            <mxRectangle x="550" y="140" width="160" height="26" as="alternateBounds" />
          </mxGeometry>
        </mxCell>
        <mxCell id="zkfFHV4jXpPFQw0GAbJ--18" value="id_plante" style="text;align=left;verticalAlign=top;spacingLeft=4;spacingRight=4;overflow=hidden;rotatable=0;points=[[0,0.5],[1,0.5]];portConstraint=eastwest;" parent="zkfFHV4jXpPFQw0GAbJ--17" vertex="1">
          <mxGeometry y="26" width="150" height="26" as="geometry" />
        </mxCell>
        <mxCell id="GfVpbrykH6ephs4-lCBZ-7" value="" style="endArrow=none;html=1;rounded=0;" parent="zkfFHV4jXpPFQw0GAbJ--17" edge="1">
          <mxGeometry width="50" height="50" relative="1" as="geometry">
            <mxPoint x="2" y="50" as="sourcePoint" />
            <mxPoint x="55" y="50" as="targetPoint" />
          </mxGeometry>
        </mxCell>
        <mxCell id="zkfFHV4jXpPFQw0GAbJ--19" value="espece" style="text;align=left;verticalAlign=top;spacingLeft=4;spacingRight=4;overflow=hidden;rotatable=0;points=[[0,0.5],[1,0.5]];portConstraint=eastwest;rounded=0;shadow=0;html=0;" parent="zkfFHV4jXpPFQw0GAbJ--17" vertex="1">
          <mxGeometry y="52" width="150" height="26" as="geometry" />
        </mxCell>
        <mxCell id="YFfReRE4VdkS00-xE2ET-7" value="nom_commun" style="text;strokeColor=none;fillColor=none;spacingLeft=4;spacingRight=4;overflow=hidden;rotatable=0;points=[[0,0.5],[1,0.5]];portConstraint=eastwest;fontSize=12;whiteSpace=wrap;html=1;" parent="zkfFHV4jXpPFQw0GAbJ--17" vertex="1">
          <mxGeometry y="78" width="150" height="30" as="geometry" />
        </mxCell>
        <mxCell id="YFfReRE4VdkS00-xE2ET-8" value="date_plantation" style="text;strokeColor=none;fillColor=none;spacingLeft=4;spacingRight=4;overflow=hidden;rotatable=0;points=[[0,0.5],[1,0.5]];portConstraint=eastwest;fontSize=12;whiteSpace=wrap;html=1;" parent="zkfFHV4jXpPFQw0GAbJ--17" vertex="1">
          <mxGeometry y="108" width="150" height="30" as="geometry" />
        </mxCell>
        <mxCell id="Ue32kIHGdav1qjdM1YY6-16" value="t_capteur" style="swimlane;fontStyle=0;childLayout=stackLayout;horizontal=1;startSize=30;horizontalStack=0;resizeParent=1;resizeParentMax=0;resizeLast=0;collapsible=1;marginBottom=0;whiteSpace=wrap;html=1;" parent="WIyWlLk6GJQsqaUBKTNV-1" vertex="1">
          <mxGeometry x="79" y="531" width="140" height="90" as="geometry" />
        </mxCell>
        <mxCell id="GfVpbrykH6ephs4-lCBZ-2" value="" style="endArrow=none;html=1;rounded=0;" parent="Ue32kIHGdav1qjdM1YY6-16" source="Ue32kIHGdav1qjdM1YY6-17" edge="1">
          <mxGeometry width="50" height="50" relative="1" as="geometry">
            <mxPoint x="100.82" y="60" as="sourcePoint" />
            <mxPoint x="0.0012865497076006704" y="60" as="targetPoint" />
          </mxGeometry>
        </mxCell>
        <mxCell id="Ue32kIHGdav1qjdM1YY6-17" value="id_capteur" style="text;strokeColor=none;fillColor=none;align=left;verticalAlign=middle;spacingLeft=4;spacingRight=4;overflow=hidden;points=[[0,0.5],[1,0.5]];portConstraint=eastwest;rotatable=0;whiteSpace=wrap;html=1;" parent="Ue32kIHGdav1qjdM1YY6-16" vertex="1">
          <mxGeometry y="30" width="140" height="30" as="geometry" />
        </mxCell>
        <mxCell id="YFfReRE4VdkS00-xE2ET-59" value="" style="endArrow=none;html=1;rounded=0;" parent="Ue32kIHGdav1qjdM1YY6-16" edge="1">
          <mxGeometry width="50" height="50" relative="1" as="geometry">
            <mxPoint y="59.430000000000064" as="sourcePoint" />
            <mxPoint x="70" y="59.430000000000064" as="targetPoint" />
          </mxGeometry>
        </mxCell>
        <mxCell id="YFfReRE4VdkS00-xE2ET-19" value="type" style="text;strokeColor=none;fillColor=none;spacingLeft=4;spacingRight=4;overflow=hidden;rotatable=0;points=[[0,0.5],[1,0.5]];portConstraint=eastwest;fontSize=12;whiteSpace=wrap;html=1;" parent="Ue32kIHGdav1qjdM1YY6-16" vertex="1">
          <mxGeometry y="60" width="140" height="30" as="geometry" />
        </mxCell>
        <mxCell id="GfVpbrykH6ephs4-lCBZ-11" value="t_utilisateur" style="swimlane;fontStyle=0;childLayout=stackLayout;horizontal=1;startSize=30;horizontalStack=0;resizeParent=1;resizeParentMax=0;resizeLast=0;collapsible=1;marginBottom=0;whiteSpace=wrap;html=1;" parent="WIyWlLk6GJQsqaUBKTNV-1" vertex="1">
          <mxGeometry x="520" y="461" width="140" height="174" as="geometry" />
        </mxCell>
        <mxCell id="GfVpbrykH6ephs4-lCBZ-13" value="" style="endArrow=none;html=1;rounded=0;" parent="GfVpbrykH6ephs4-lCBZ-11" edge="1">
          <mxGeometry width="50" height="50" relative="1" as="geometry">
            <mxPoint x="100.82" y="60" as="sourcePoint" />
            <mxPoint x="0.0012865497076006704" y="60" as="targetPoint" />
          </mxGeometry>
        </mxCell>
        <mxCell id="Ue32kIHGdav1qjdM1YY6-9" value="nom_utilisateur" style="text;align=left;verticalAlign=top;spacingLeft=4;spacingRight=4;overflow=hidden;rotatable=0;points=[[0,0.5],[1,0.5]];portConstraint=eastwest;rounded=0;shadow=0;html=0;" parent="GfVpbrykH6ephs4-lCBZ-11" vertex="1">
          <mxGeometry y="30" width="140" height="28" as="geometry" />
        </mxCell>
        <mxCell id="Ue32kIHGdav1qjdM1YY6-10" value="mot_de_passe" style="text;align=left;verticalAlign=top;spacingLeft=4;spacingRight=4;overflow=hidden;rotatable=0;points=[[0,0.5],[1,0.5]];portConstraint=eastwest;rounded=0;shadow=0;html=0;" parent="GfVpbrykH6ephs4-lCBZ-11" vertex="1">
          <mxGeometry y="58" width="140" height="26" as="geometry" />
        </mxCell>
        <mxCell id="Ue32kIHGdav1qjdM1YY6-12" value="date_naissance" style="text;strokeColor=none;fillColor=none;spacingLeft=4;spacingRight=4;overflow=hidden;rotatable=0;points=[[0,0.5],[1,0.5]];portConstraint=eastwest;fontSize=12;whiteSpace=wrap;html=1;" parent="GfVpbrykH6ephs4-lCBZ-11" vertex="1">
          <mxGeometry y="84" width="140" height="30" as="geometry" />
        </mxCell>
        <mxCell id="YFfReRE4VdkS00-xE2ET-3" value="adresse_mail" style="text;strokeColor=none;fillColor=none;align=left;verticalAlign=middle;spacingLeft=4;spacingRight=4;overflow=hidden;points=[[0,0.5],[1,0.5]];portConstraint=eastwest;rotatable=0;whiteSpace=wrap;html=1;" parent="GfVpbrykH6ephs4-lCBZ-11" vertex="1">
          <mxGeometry y="114" width="140" height="30" as="geometry" />
        </mxCell>
        <mxCell id="GfVpbrykH6ephs4-lCBZ-12" value="id_utilisateur" style="text;strokeColor=none;fillColor=none;align=left;verticalAlign=middle;spacingLeft=4;spacingRight=4;overflow=hidden;points=[[0,0.5],[1,0.5]];portConstraint=eastwest;rotatable=0;whiteSpace=wrap;html=1;" parent="GfVpbrykH6ephs4-lCBZ-11" vertex="1">
          <mxGeometry y="144" width="140" height="30" as="geometry" />
        </mxCell>
        <mxCell id="GfVpbrykH6ephs4-lCBZ-14" value="t_conditions" style="swimlane;fontStyle=0;childLayout=stackLayout;horizontal=1;startSize=30;horizontalStack=0;resizeParent=1;resizeParentMax=0;resizeLast=0;collapsible=1;marginBottom=0;whiteSpace=wrap;html=1;" parent="WIyWlLk6GJQsqaUBKTNV-1" vertex="1">
          <mxGeometry x="59" y="140" width="160" height="250" as="geometry" />
        </mxCell>
        <mxCell id="GfVpbrykH6ephs4-lCBZ-15" value="id_conditions" style="text;strokeColor=none;fillColor=none;align=left;verticalAlign=middle;spacingLeft=4;spacingRight=4;overflow=hidden;points=[[0,0.5],[1,0.5]];portConstraint=eastwest;rotatable=0;whiteSpace=wrap;html=1;" parent="GfVpbrykH6ephs4-lCBZ-14" vertex="1">
          <mxGeometry y="30" width="160" height="40" as="geometry" />
        </mxCell>
        <mxCell id="GfVpbrykH6ephs4-lCBZ-16" value="" style="endArrow=none;html=1;rounded=0;" parent="GfVpbrykH6ephs4-lCBZ-14" edge="1">
          <mxGeometry width="50" height="50" relative="1" as="geometry">
            <mxPoint y="60" as="sourcePoint" />
            <mxPoint x="80" y="60" as="targetPoint" />
          </mxGeometry>
        </mxCell>
        <mxCell id="YFfReRE4VdkS00-xE2ET-9" value="temperature" style="text;strokeColor=none;fillColor=none;spacingLeft=4;spacingRight=4;overflow=hidden;rotatable=0;points=[[0,0.5],[1,0.5]];portConstraint=eastwest;fontSize=12;whiteSpace=wrap;html=1;" parent="GfVpbrykH6ephs4-lCBZ-14" vertex="1">
          <mxGeometry y="70" width="160" height="30" as="geometry" />
        </mxCell>
        <mxCell id="YFfReRE4VdkS00-xE2ET-10" value="concentratrion_nutriment" style="text;strokeColor=none;fillColor=none;spacingLeft=4;spacingRight=4;overflow=hidden;rotatable=0;points=[[0,0.5],[1,0.5]];portConstraint=eastwest;fontSize=12;whiteSpace=wrap;html=1;" parent="GfVpbrykH6ephs4-lCBZ-14" vertex="1">
          <mxGeometry y="100" width="160" height="30" as="geometry" />
        </mxCell>
        <mxCell id="YFfReRE4VdkS00-xE2ET-11" value="humidite" style="text;strokeColor=none;fillColor=none;spacingLeft=4;spacingRight=4;overflow=hidden;rotatable=0;points=[[0,0.5],[1,0.5]];portConstraint=eastwest;fontSize=12;whiteSpace=wrap;html=1;" parent="GfVpbrykH6ephs4-lCBZ-14" vertex="1">
          <mxGeometry y="130" width="160" height="30" as="geometry" />
        </mxCell>
        <mxCell id="YFfReRE4VdkS00-xE2ET-12" value="luminosite" style="text;strokeColor=none;fillColor=none;spacingLeft=4;spacingRight=4;overflow=hidden;rotatable=0;points=[[0,0.5],[1,0.5]];portConstraint=eastwest;fontSize=12;whiteSpace=wrap;html=1;" parent="GfVpbrykH6ephs4-lCBZ-14" vertex="1">
          <mxGeometry y="160" width="160" height="30" as="geometry" />
        </mxCell>
        <mxCell id="KjPd22YsJmbqom_1_n1A-0" value="cout_total" style="text;strokeColor=none;fillColor=none;spacingLeft=4;spacingRight=4;overflow=hidden;rotatable=0;points=[[0,0.5],[1,0.5]];portConstraint=eastwest;fontSize=12;whiteSpace=wrap;html=1;" parent="GfVpbrykH6ephs4-lCBZ-14" vertex="1">
          <mxGeometry y="190" width="160" height="30" as="geometry" />
        </mxCell>
        <mxCell id="YFfReRE4VdkS00-xE2ET-76" value="timestamp" style="text;strokeColor=none;fillColor=none;spacingLeft=4;spacingRight=4;overflow=hidden;rotatable=0;points=[[0,0.5],[1,0.5]];portConstraint=eastwest;fontSize=12;whiteSpace=wrap;html=1;" parent="GfVpbrykH6ephs4-lCBZ-14" vertex="1">
          <mxGeometry y="220" width="160" height="30" as="geometry" />
        </mxCell>
        <mxCell id="GfVpbrykH6ephs4-lCBZ-23" value="t_boite" style="swimlane;fontStyle=0;childLayout=stackLayout;horizontal=1;startSize=30;horizontalStack=0;resizeParent=1;resizeParentMax=0;resizeLast=0;collapsible=1;marginBottom=0;whiteSpace=wrap;html=1;" parent="WIyWlLk6GJQsqaUBKTNV-1" vertex="1">
          <mxGeometry x="209" y="641" width="140" height="90" as="geometry" />
        </mxCell>
        <mxCell id="GfVpbrykH6ephs4-lCBZ-24" value="id_boite" style="text;strokeColor=none;fillColor=none;align=left;verticalAlign=middle;spacingLeft=4;spacingRight=4;overflow=hidden;points=[[0,0.5],[1,0.5]];portConstraint=eastwest;rotatable=0;whiteSpace=wrap;html=1;" parent="GfVpbrykH6ephs4-lCBZ-23" vertex="1">
          <mxGeometry y="30" width="140" height="30" as="geometry" />
        </mxCell>
        <mxCell id="GfVpbrykH6ephs4-lCBZ-25" value="" style="endArrow=none;html=1;rounded=0;" parent="GfVpbrykH6ephs4-lCBZ-23" edge="1">
          <mxGeometry width="50" height="50" relative="1" as="geometry">
            <mxPoint x="55" y="60" as="sourcePoint" />
            <mxPoint x="0.0012865497076006704" y="60" as="targetPoint" />
          </mxGeometry>
        </mxCell>
        <mxCell id="YFfReRE4VdkS00-xE2ET-15" value="localisation" style="text;strokeColor=none;fillColor=none;spacingLeft=4;spacingRight=4;overflow=hidden;rotatable=0;points=[[0,0.5],[1,0.5]];portConstraint=eastwest;fontSize=12;whiteSpace=wrap;html=1;" parent="GfVpbrykH6ephs4-lCBZ-23" vertex="1">
          <mxGeometry y="60" width="140" height="30" as="geometry" />
        </mxCell>
        <mxCell id="YFfReRE4VdkS00-xE2ET-21" value="" style="endArrow=none;endSize=10;endFill=0;shadow=0;strokeWidth=1;rounded=0;edgeStyle=elbowEdgeStyle;elbow=vertical;entryX=0.001;entryY=0.915;entryDx=0;entryDy=0;entryPerimeter=0;exitX=1;exitY=0.5;exitDx=0;exitDy=0;" parent="WIyWlLk6GJQsqaUBKTNV-1" target="GfVpbrykH6ephs4-lCBZ-24" edge="1">
          <mxGeometry width="160" relative="1" as="geometry">
            <mxPoint x="169" y="696" as="sourcePoint" />
            <mxPoint x="199" y="677" as="targetPoint" />
            <Array as="points" />
          </mxGeometry>
        </mxCell>
        <mxCell id="YFfReRE4VdkS00-xE2ET-24" value="" style="endArrow=none;endSize=10;endFill=0;shadow=0;strokeWidth=1;rounded=0;edgeStyle=elbowEdgeStyle;elbow=vertical;exitX=0.5;exitY=0;exitDx=0;exitDy=0;" parent="WIyWlLk6GJQsqaUBKTNV-1" target="YFfReRE4VdkS00-xE2ET-19" edge="1">
          <mxGeometry width="160" relative="1" as="geometry">
            <mxPoint x="129" y="671" as="sourcePoint" />
            <mxPoint x="129" y="561" as="targetPoint" />
            <Array as="points">
              <mxPoint x="129" y="671" />
            </Array>
          </mxGeometry>
        </mxCell>
        <mxCell id="YFfReRE4VdkS00-xE2ET-25" value="1,n" style="text;html=1;align=center;verticalAlign=middle;resizable=0;points=[];autosize=1;strokeColor=none;fillColor=none;" parent="WIyWlLk6GJQsqaUBKTNV-1" vertex="1">
          <mxGeometry x="169" y="671" width="40" height="30" as="geometry" />
        </mxCell>
        <mxCell id="YFfReRE4VdkS00-xE2ET-28" value="1" style="text;html=1;align=center;verticalAlign=middle;resizable=0;points=[];autosize=1;strokeColor=none;fillColor=none;" parent="WIyWlLk6GJQsqaUBKTNV-1" vertex="1">
          <mxGeometry x="134" y="621" width="30" height="30" as="geometry" />
        </mxCell>
        <mxCell id="YFfReRE4VdkS00-xE2ET-29" value="1,n" style="text;html=1;align=center;verticalAlign=middle;resizable=0;points=[];autosize=1;strokeColor=none;fillColor=none;" parent="WIyWlLk6GJQsqaUBKTNV-1" vertex="1">
          <mxGeometry x="109" y="401" width="40" height="30" as="geometry" />
        </mxCell>
        <mxCell id="YFfReRE4VdkS00-xE2ET-32" value="" style="ellipse;whiteSpace=wrap;html=1;" parent="WIyWlLk6GJQsqaUBKTNV-1" vertex="1">
          <mxGeometry x="109" y="441" width="80" height="50" as="geometry" />
        </mxCell>
        <mxCell id="YFfReRE4VdkS00-xE2ET-35" value="t_conditions_optimales" style="swimlane;fontStyle=0;align=center;verticalAlign=top;childLayout=stackLayout;horizontal=1;startSize=26;horizontalStack=0;resizeParent=1;resizeLast=0;collapsible=1;marginBottom=0;rounded=0;shadow=0;strokeWidth=1;" parent="WIyWlLk6GJQsqaUBKTNV-1" vertex="1">
          <mxGeometry x="559" y="826" width="200" height="168" as="geometry">
            <mxRectangle x="550" y="140" width="160" height="26" as="alternateBounds" />
          </mxGeometry>
        </mxCell>
        <mxCell id="YFfReRE4VdkS00-xE2ET-36" value="id_conditions_optimales" style="text;align=left;verticalAlign=top;spacingLeft=4;spacingRight=4;overflow=hidden;rotatable=0;points=[[0,0.5],[1,0.5]];portConstraint=eastwest;" parent="YFfReRE4VdkS00-xE2ET-35" vertex="1">
          <mxGeometry y="26" width="200" height="26" as="geometry" />
        </mxCell>
        <mxCell id="YFfReRE4VdkS00-xE2ET-37" value="" style="endArrow=none;html=1;rounded=0;entryX=0.671;entryY=0.922;entryDx=0;entryDy=0;entryPerimeter=0;" parent="YFfReRE4VdkS00-xE2ET-35" target="YFfReRE4VdkS00-xE2ET-36" edge="1">
          <mxGeometry width="50" height="50" relative="1" as="geometry">
            <mxPoint x="2" y="50" as="sourcePoint" />
            <mxPoint x="82" y="50" as="targetPoint" />
          </mxGeometry>
        </mxCell>
        <mxCell id="YFfReRE4VdkS00-xE2ET-38" value="temperature_optimale" style="text;align=left;verticalAlign=top;spacingLeft=4;spacingRight=4;overflow=hidden;rotatable=0;points=[[0,0.5],[1,0.5]];portConstraint=eastwest;rounded=0;shadow=0;html=0;" parent="YFfReRE4VdkS00-xE2ET-35" vertex="1">
          <mxGeometry y="52" width="200" height="26" as="geometry" />
        </mxCell>
        <mxCell id="YFfReRE4VdkS00-xE2ET-39" value="humidite_optimale" style="text;strokeColor=none;fillColor=none;spacingLeft=4;spacingRight=4;overflow=hidden;rotatable=0;points=[[0,0.5],[1,0.5]];portConstraint=eastwest;fontSize=12;whiteSpace=wrap;html=1;" parent="YFfReRE4VdkS00-xE2ET-35" vertex="1">
          <mxGeometry y="78" width="200" height="30" as="geometry" />
        </mxCell>
        <mxCell id="YFfReRE4VdkS00-xE2ET-40" value="luminosite_optimale" style="text;strokeColor=none;fillColor=none;spacingLeft=4;spacingRight=4;overflow=hidden;rotatable=0;points=[[0,0.5],[1,0.5]];portConstraint=eastwest;fontSize=12;whiteSpace=wrap;html=1;" parent="YFfReRE4VdkS00-xE2ET-35" vertex="1">
          <mxGeometry y="108" width="200" height="30" as="geometry" />
        </mxCell>
        <mxCell id="YFfReRE4VdkS00-xE2ET-41" value="concentratrion_nutriment_optimale" style="text;strokeColor=none;fillColor=none;spacingLeft=4;spacingRight=4;overflow=hidden;rotatable=0;points=[[0,0.5],[1,0.5]];portConstraint=eastwest;fontSize=12;whiteSpace=wrap;html=1;" parent="YFfReRE4VdkS00-xE2ET-35" vertex="1">
          <mxGeometry y="138" width="200" height="30" as="geometry" />
        </mxCell>
        <mxCell id="YFfReRE4VdkS00-xE2ET-42" value="1" style="text;html=1;align=center;verticalAlign=middle;resizable=0;points=[];autosize=1;strokeColor=none;fillColor=none;" parent="WIyWlLk6GJQsqaUBKTNV-1" vertex="1">
          <mxGeometry x="114" y="501" width="30" height="30" as="geometry" />
        </mxCell>
        <mxCell id="YFfReRE4VdkS00-xE2ET-49" value="" style="endArrow=none;endSize=10;endFill=0;shadow=0;strokeWidth=1;rounded=0;edgeStyle=elbowEdgeStyle;elbow=vertical;" parent="WIyWlLk6GJQsqaUBKTNV-1" source="YFfReRE4VdkS00-xE2ET-50" target="zkfFHV4jXpPFQw0GAbJ--17" edge="1">
          <mxGeometry width="160" relative="1" as="geometry">
            <mxPoint x="639" y="1051" as="sourcePoint" />
            <mxPoint x="469" y="1020" as="targetPoint" />
            <Array as="points">
              <mxPoint x="389" y="881" />
              <mxPoint x="409" y="876" />
            </Array>
          </mxGeometry>
        </mxCell>
        <mxCell id="YFfReRE4VdkS00-xE2ET-51" value="1, n" style="text;html=1;align=center;verticalAlign=middle;resizable=0;points=[];autosize=1;strokeColor=none;fillColor=none;" parent="WIyWlLk6GJQsqaUBKTNV-1" vertex="1">
          <mxGeometry x="359" y="851" width="40" height="30" as="geometry" />
        </mxCell>
        <mxCell id="YFfReRE4VdkS00-xE2ET-52" value="0,1" style="text;html=1;align=center;verticalAlign=middle;resizable=0;points=[];autosize=1;strokeColor=none;fillColor=none;" parent="WIyWlLk6GJQsqaUBKTNV-1" vertex="1">
          <mxGeometry x="519" y="851" width="40" height="30" as="geometry" />
        </mxCell>
        <mxCell id="YFfReRE4VdkS00-xE2ET-65" value="" style="endArrow=none;html=1;rounded=0;entryX=0.5;entryY=1;entryDx=0;entryDy=0;exitX=0.5;exitY=0;exitDx=0;exitDy=0;" parent="WIyWlLk6GJQsqaUBKTNV-1" source="Ue32kIHGdav1qjdM1YY6-16" target="YFfReRE4VdkS00-xE2ET-32" edge="1">
          <mxGeometry width="50" height="50" relative="1" as="geometry">
            <mxPoint x="139" y="441" as="sourcePoint" />
            <mxPoint x="189" y="391" as="targetPoint" />
          </mxGeometry>
        </mxCell>
        <mxCell id="YFfReRE4VdkS00-xE2ET-66" value="" style="endArrow=none;html=1;rounded=0;exitX=0.438;exitY=-0.003;exitDx=0;exitDy=0;exitPerimeter=0;entryX=0.528;entryY=1.009;entryDx=0;entryDy=0;entryPerimeter=0;" parent="WIyWlLk6GJQsqaUBKTNV-1" source="TuRCZwjncOL6qqH0-e27-1" target="YFfReRE4VdkS00-xE2ET-76" edge="1">
          <mxGeometry width="50" height="50" relative="1" as="geometry">
            <mxPoint x="148.74" y="441" as="sourcePoint" />
            <mxPoint x="145" y="410" as="targetPoint" />
          </mxGeometry>
        </mxCell>
        <mxCell id="YFfReRE4VdkS00-xE2ET-73" value="" style="endArrow=none;endSize=10;endFill=0;shadow=0;strokeWidth=1;rounded=0;edgeStyle=elbowEdgeStyle;elbow=vertical;" parent="WIyWlLk6GJQsqaUBKTNV-1" source="YFfReRE4VdkS00-xE2ET-35" target="YFfReRE4VdkS00-xE2ET-50" edge="1">
          <mxGeometry width="160" relative="1" as="geometry">
            <mxPoint x="779" y="519" as="sourcePoint" />
            <mxPoint x="584" y="769" as="targetPoint" />
            <Array as="points">
              <mxPoint x="539" y="881" />
            </Array>
          </mxGeometry>
        </mxCell>
        <mxCell id="YFfReRE4VdkS00-xE2ET-50" value="avoir" style="ellipse;whiteSpace=wrap;html=1;" parent="WIyWlLk6GJQsqaUBKTNV-1" vertex="1">
          <mxGeometry x="424" y="861" width="80" height="50" as="geometry" />
        </mxCell>
        <mxCell id="YFfReRE4VdkS00-xE2ET-46" value="1,n" style="text;html=1;align=center;verticalAlign=middle;resizable=0;points=[];autosize=1;strokeColor=none;fillColor=none;" parent="WIyWlLk6GJQsqaUBKTNV-1" vertex="1">
          <mxGeometry x="239" y="731" width="40" height="30" as="geometry" />
        </mxCell>
        <mxCell id="YFfReRE4VdkS00-xE2ET-47" value="1" style="text;html=1;align=center;verticalAlign=middle;resizable=0;points=[];autosize=1;strokeColor=none;fillColor=none;" parent="WIyWlLk6GJQsqaUBKTNV-1" vertex="1">
          <mxGeometry x="244" y="809" width="30" height="30" as="geometry" />
        </mxCell>
        <mxCell id="YFfReRE4VdkS00-xE2ET-80" value="" style="endArrow=none;html=1;rounded=0;exitX=0.5;exitY=0;exitDx=0;exitDy=0;" parent="WIyWlLk6GJQsqaUBKTNV-1" edge="1">
          <mxGeometry width="50" height="50" relative="1" as="geometry">
            <mxPoint x="279" y="841" as="sourcePoint" />
            <mxPoint x="279" y="809" as="targetPoint" />
          </mxGeometry>
        </mxCell>
        <mxCell id="YFfReRE4VdkS00-xE2ET-81" value="" style="endArrow=none;html=1;rounded=0;" parent="WIyWlLk6GJQsqaUBKTNV-1" target="YFfReRE4VdkS00-xE2ET-15" edge="1">
          <mxGeometry width="50" height="50" relative="1" as="geometry">
            <mxPoint x="279" y="759" as="sourcePoint" />
            <mxPoint x="349" y="741" as="targetPoint" />
          </mxGeometry>
        </mxCell>
        <mxCell id="TuRCZwjncOL6qqH0-e27-0" value="timestamp" style="text;html=1;align=center;verticalAlign=middle;resizable=0;points=[];autosize=1;strokeColor=none;fillColor=none;" parent="WIyWlLk6GJQsqaUBKTNV-1" vertex="1">
          <mxGeometry x="109" y="461" width="80" height="30" as="geometry" />
        </mxCell>
        <mxCell id="TuRCZwjncOL6qqH0-e27-1" value="surveiller" style="text;html=1;align=center;verticalAlign=middle;resizable=0;points=[];autosize=1;strokeColor=none;fillColor=none;" parent="WIyWlLk6GJQsqaUBKTNV-1" vertex="1">
          <mxGeometry x="114" y="441" width="70" height="30" as="geometry" />
        </mxCell>
        <mxCell id="TuRCZwjncOL6qqH0-e27-2" value="" style="endArrow=none;html=1;rounded=0;entryX=1.009;entryY=0.184;entryDx=0;entryDy=0;entryPerimeter=0;" parent="WIyWlLk6GJQsqaUBKTNV-1" target="TuRCZwjncOL6qqH0-e27-0" edge="1">
          <mxGeometry width="50" height="50" relative="1" as="geometry">
            <mxPoint x="109" y="465.85" as="sourcePoint" />
            <mxPoint x="157" y="465.85" as="targetPoint" />
          </mxGeometry>
        </mxCell>
        <mxCell id="nTh5DPQX1Dd_MtbSghnO-0" value="t_actions_correctives" style="swimlane;fontStyle=0;childLayout=stackLayout;horizontal=1;startSize=30;horizontalStack=0;resizeParent=1;resizeParentMax=0;resizeLast=0;collapsible=1;marginBottom=0;whiteSpace=wrap;html=1;" parent="WIyWlLk6GJQsqaUBKTNV-1" vertex="1">
          <mxGeometry x="520" y="235" width="140" height="88" as="geometry" />
        </mxCell>
        <mxCell id="nTh5DPQX1Dd_MtbSghnO-1" value="id_actions_correctives" style="text;strokeColor=none;fillColor=none;align=left;verticalAlign=middle;spacingLeft=4;spacingRight=4;overflow=hidden;points=[[0,0.5],[1,0.5]];portConstraint=eastwest;rotatable=0;whiteSpace=wrap;html=1;" parent="nTh5DPQX1Dd_MtbSghnO-0" vertex="1">
          <mxGeometry y="30" width="140" height="30" as="geometry" />
        </mxCell>
        <mxCell id="nTh5DPQX1Dd_MtbSghnO-2" value="" style="endArrow=none;html=1;rounded=0;" parent="nTh5DPQX1Dd_MtbSghnO-0" edge="1">
          <mxGeometry width="50" height="50" relative="1" as="geometry">
            <mxPoint x="100.82" y="60" as="sourcePoint" />
            <mxPoint x="0.0012865497076006704" y="60" as="targetPoint" />
          </mxGeometry>
        </mxCell>
        <mxCell id="nTh5DPQX1Dd_MtbSghnO-3" value="description" style="text;align=left;verticalAlign=top;spacingLeft=4;spacingRight=4;overflow=hidden;rotatable=0;points=[[0,0.5],[1,0.5]];portConstraint=eastwest;rounded=0;shadow=0;html=0;" parent="nTh5DPQX1Dd_MtbSghnO-0" vertex="1">
          <mxGeometry y="60" width="140" height="28" as="geometry" />
        </mxCell>
        <mxCell id="nTh5DPQX1Dd_MtbSghnO-7" value="" style="ellipse;whiteSpace=wrap;html=1;" parent="WIyWlLk6GJQsqaUBKTNV-1" vertex="1">
          <mxGeometry x="550" y="381" width="80" height="50" as="geometry" />
        </mxCell>
        <mxCell id="nTh5DPQX1Dd_MtbSghnO-8" value="timestamp" style="text;html=1;align=center;verticalAlign=middle;resizable=0;points=[];autosize=1;strokeColor=none;fillColor=none;" parent="WIyWlLk6GJQsqaUBKTNV-1" vertex="1">
          <mxGeometry x="550" y="401" width="80" height="30" as="geometry" />
        </mxCell>
        <mxCell id="nTh5DPQX1Dd_MtbSghnO-9" value="declancher" style="text;html=1;align=center;verticalAlign=middle;resizable=0;points=[];autosize=1;strokeColor=none;fillColor=none;" parent="WIyWlLk6GJQsqaUBKTNV-1" vertex="1">
          <mxGeometry x="550" y="381" width="80" height="30" as="geometry" />
        </mxCell>
        <mxCell id="nTh5DPQX1Dd_MtbSghnO-10" value="" style="endArrow=none;html=1;rounded=0;entryX=0.997;entryY=0.181;entryDx=0;entryDy=0;entryPerimeter=0;" parent="WIyWlLk6GJQsqaUBKTNV-1" target="nTh5DPQX1Dd_MtbSghnO-8" edge="1">
          <mxGeometry width="50" height="50" relative="1" as="geometry">
            <mxPoint x="550" y="405.7" as="sourcePoint" />
            <mxPoint x="625" y="406" as="targetPoint" />
          </mxGeometry>
        </mxCell>
        <mxCell id="nTh5DPQX1Dd_MtbSghnO-11" value="" style="endArrow=none;html=1;rounded=0;entryX=0.499;entryY=1.026;entryDx=0;entryDy=0;entryPerimeter=0;exitX=0.5;exitY=0;exitDx=0;exitDy=0;" parent="WIyWlLk6GJQsqaUBKTNV-1" source="nTh5DPQX1Dd_MtbSghnO-7" target="nTh5DPQX1Dd_MtbSghnO-3" edge="1">
          <mxGeometry width="50" height="50" relative="1" as="geometry">
            <mxPoint x="600" y="370" as="sourcePoint" />
            <mxPoint x="589.44" y="349.54600000000005" as="targetPoint" />
          </mxGeometry>
        </mxCell>
        <mxCell id="nTh5DPQX1Dd_MtbSghnO-13" value="" style="endArrow=none;html=1;rounded=0;entryX=0.496;entryY=1.021;entryDx=0;entryDy=0;entryPerimeter=0;exitX=0.5;exitY=0;exitDx=0;exitDy=0;" parent="WIyWlLk6GJQsqaUBKTNV-1" edge="1">
          <mxGeometry width="50" height="50" relative="1" as="geometry">
            <mxPoint x="590.5" y="462" as="sourcePoint" />
            <mxPoint x="589.5" y="431" as="targetPoint" />
          </mxGeometry>
        </mxCell>
        <mxCell id="nTh5DPQX1Dd_MtbSghnO-14" value="1,n" style="text;html=1;align=center;verticalAlign=middle;resizable=0;points=[];autosize=1;strokeColor=none;fillColor=none;" parent="WIyWlLk6GJQsqaUBKTNV-1" vertex="1">
          <mxGeometry x="590" y="431" width="40" height="30" as="geometry" />
        </mxCell>
        <mxCell id="nTh5DPQX1Dd_MtbSghnO-15" value="1" style="text;html=1;align=center;verticalAlign=middle;resizable=0;points=[];autosize=1;strokeColor=none;fillColor=none;" parent="WIyWlLk6GJQsqaUBKTNV-1" vertex="1">
          <mxGeometry x="590" y="320" width="30" height="30" as="geometry" />
        </mxCell>
        <mxCell id="WwZieslQA4ISBtLZGqdw-0" value="" style="ellipse;whiteSpace=wrap;html=1;" parent="WIyWlLk6GJQsqaUBKTNV-1" vertex="1">
          <mxGeometry x="239" y="761" width="80" height="50" as="geometry" />
        </mxCell>
        <mxCell id="WwZieslQA4ISBtLZGqdw-1" value="timestamp" style="text;html=1;align=center;verticalAlign=middle;resizable=0;points=[];autosize=1;strokeColor=none;fillColor=none;" parent="WIyWlLk6GJQsqaUBKTNV-1" vertex="1">
          <mxGeometry x="239" y="781" width="80" height="30" as="geometry" />
        </mxCell>
        <mxCell id="WwZieslQA4ISBtLZGqdw-2" value="avoir" style="text;html=1;align=center;verticalAlign=middle;resizable=0;points=[];autosize=1;strokeColor=none;fillColor=none;" parent="WIyWlLk6GJQsqaUBKTNV-1" vertex="1">
          <mxGeometry x="254" y="761" width="50" height="30" as="geometry" />
        </mxCell>
        <mxCell id="WwZieslQA4ISBtLZGqdw-3" value="" style="endArrow=none;html=1;rounded=0;entryX=0.997;entryY=0.181;entryDx=0;entryDy=0;entryPerimeter=0;" parent="WIyWlLk6GJQsqaUBKTNV-1" target="WwZieslQA4ISBtLZGqdw-1" edge="1">
          <mxGeometry width="50" height="50" relative="1" as="geometry">
            <mxPoint x="239" y="785.7" as="sourcePoint" />
            <mxPoint x="314" y="786" as="targetPoint" />
          </mxGeometry>
        </mxCell>
        <mxCell id="WwZieslQA4ISBtLZGqdw-4" value="" style="ellipse;whiteSpace=wrap;html=1;" parent="WIyWlLk6GJQsqaUBKTNV-1" vertex="1">
          <mxGeometry x="89" y="671" width="80" height="50" as="geometry" />
        </mxCell>
        <mxCell id="WwZieslQA4ISBtLZGqdw-5" value="timestamp" style="text;html=1;align=center;verticalAlign=middle;resizable=0;points=[];autosize=1;strokeColor=none;fillColor=none;" parent="WIyWlLk6GJQsqaUBKTNV-1" vertex="1">
          <mxGeometry x="89" y="691" width="80" height="30" as="geometry" />
        </mxCell>
        <mxCell id="WwZieslQA4ISBtLZGqdw-6" value="avoir" style="text;html=1;align=center;verticalAlign=middle;resizable=0;points=[];autosize=1;strokeColor=none;fillColor=none;" parent="WIyWlLk6GJQsqaUBKTNV-1" vertex="1">
          <mxGeometry x="104" y="671" width="50" height="30" as="geometry" />
        </mxCell>
        <mxCell id="WwZieslQA4ISBtLZGqdw-7" value="" style="endArrow=none;html=1;rounded=0;entryX=0.997;entryY=0.181;entryDx=0;entryDy=0;entryPerimeter=0;" parent="WIyWlLk6GJQsqaUBKTNV-1" target="WwZieslQA4ISBtLZGqdw-5" edge="1">
          <mxGeometry width="50" height="50" relative="1" as="geometry">
            <mxPoint x="89" y="695.7" as="sourcePoint" />
            <mxPoint x="164" y="696" as="targetPoint" />
          </mxGeometry>
        </mxCell>
        <mxCell id="nNsHj7HlB3vMz9du3p5I-0" value="" style="ellipse;whiteSpace=wrap;html=1;" parent="WIyWlLk6GJQsqaUBKTNV-1" vertex="1">
          <mxGeometry x="338" y="240" width="80" height="50" as="geometry" />
        </mxCell>
        <mxCell id="nNsHj7HlB3vMz9du3p5I-1" value="timestamp" style="text;html=1;align=center;verticalAlign=middle;resizable=0;points=[];autosize=1;strokeColor=none;fillColor=none;" parent="WIyWlLk6GJQsqaUBKTNV-1" vertex="1">
          <mxGeometry x="338" y="260" width="80" height="30" as="geometry" />
        </mxCell>
        <mxCell id="nNsHj7HlB3vMz9du3p5I-2" value="influer" style="text;html=1;align=center;verticalAlign=middle;resizable=0;points=[];autosize=1;strokeColor=none;fillColor=none;" parent="WIyWlLk6GJQsqaUBKTNV-1" vertex="1">
          <mxGeometry x="348" y="240" width="60" height="30" as="geometry" />
        </mxCell>
        <mxCell id="nNsHj7HlB3vMz9du3p5I-3" value="" style="endArrow=none;html=1;rounded=0;entryX=0.997;entryY=0.181;entryDx=0;entryDy=0;entryPerimeter=0;" parent="WIyWlLk6GJQsqaUBKTNV-1" target="nNsHj7HlB3vMz9du3p5I-1" edge="1">
          <mxGeometry width="50" height="50" relative="1" as="geometry">
            <mxPoint x="338" y="264.7" as="sourcePoint" />
            <mxPoint x="413" y="265" as="targetPoint" />
          </mxGeometry>
        </mxCell>
        <mxCell id="nNsHj7HlB3vMz9du3p5I-5" value="" style="endArrow=none;html=1;rounded=0;exitX=0.003;exitY=0.016;exitDx=0;exitDy=0;exitPerimeter=0;entryX=1;entryY=0.5;entryDx=0;entryDy=0;" parent="WIyWlLk6GJQsqaUBKTNV-1" source="nTh5DPQX1Dd_MtbSghnO-1" target="nNsHj7HlB3vMz9du3p5I-0" edge="1">
          <mxGeometry width="50" height="50" relative="1" as="geometry">
            <mxPoint x="524" y="272" as="sourcePoint" />
            <mxPoint x="414" y="260" as="targetPoint" />
          </mxGeometry>
        </mxCell>
        <mxCell id="4KB8AtQHShT28koadpPk-0" value="" style="endArrow=none;html=1;rounded=0;exitX=0.012;exitY=0.135;exitDx=0;exitDy=0;exitPerimeter=0;entryX=1;entryY=0.5;entryDx=0;entryDy=0;" parent="WIyWlLk6GJQsqaUBKTNV-1" source="nNsHj7HlB3vMz9du3p5I-1" edge="1">
          <mxGeometry width="50" height="50" relative="1" as="geometry">
            <mxPoint x="321" y="264.63" as="sourcePoint" />
            <mxPoint x="219" y="264.63" as="targetPoint" />
          </mxGeometry>
        </mxCell>
        <mxCell id="4KB8AtQHShT28koadpPk-1" value="1,n" style="text;html=1;align=center;verticalAlign=middle;resizable=0;points=[];autosize=1;strokeColor=none;fillColor=none;" parent="WIyWlLk6GJQsqaUBKTNV-1" vertex="1">
          <mxGeometry x="479" y="235" width="40" height="30" as="geometry" />
        </mxCell>
        <mxCell id="4KB8AtQHShT28koadpPk-2" value="1,n" style="text;html=1;align=center;verticalAlign=middle;resizable=0;points=[];autosize=1;strokeColor=none;fillColor=none;" parent="WIyWlLk6GJQsqaUBKTNV-1" vertex="1">
          <mxGeometry x="219" y="235" width="40" height="30" as="geometry" />
        </mxCell>
      </root>
    </mxGraphModel>
  </diagram>
</mxfile>
